<svg width="10" height="18" viewBox="0 0 10 18" fill="none" xmlns="http://www.w3.org/2000/svg">
<path d="M2.60765 9.00635L9.64115 15.983C9.88038 16.2203 9.99617 16.4971 9.98851 16.8135C9.98086 17.1299 9.8571 17.4068 9.61722 17.6441C9.37735 17.8814 9.09824 18 8.7799 18C8.46156 18 8.18245 17.8814 7.94258 17.6441L0.574162 10.359C0.382775 10.1691 0.239234 9.95554 0.143541 9.71824C0.0478469 9.48095 0 9.24365 0 9.00635C0 8.76905 0.0478469 8.53175 0.143541 8.29445C0.239234 8.05715 0.382775 7.84358 0.574162 7.65374L7.94258 0.344912C8.18182 0.107613 8.46507 -0.0072404 8.79234 0.00035319C9.11962 0.00794678 9.40255 0.13071 9.64115 0.368642C9.87974 0.606575 9.99936 0.883424 10 1.19919C10.0006 1.51496 9.88102 1.79181 9.64115 2.02974L2.60765 9.00635Z" fill="black"/>
</svg>
