<svg width="14" height="18" viewBox="0 0 14 18" fill="none" xmlns="http://www.w3.org/2000/svg">
<path d="M0.875003 15.3C0.627086 15.3 0.41942 15.2136 0.252003 15.0408C0.0845864 14.868 0.00058635 14.6544 3.01724e-06 14.4C-0.000580316 14.1456 0.0834197 13.932 0.252003 13.7592C0.420586 13.5864 0.628253 13.5 0.875003 13.5H1.75V7.2C1.75 5.955 2.11459 4.8489 2.84375 3.8817C3.57292 2.9145 4.52083 2.2806 5.6875 1.98V1.35C5.6875 0.975002 5.81525 0.656402 6.07075 0.394202C6.32625 0.132002 6.636 0.000602045 7 2.04545e-06C7.364 -0.000597954 7.67404 0.130802 7.93012 0.394202C8.18621 0.657602 8.31367 0.976202 8.3125 1.35V1.98C9.47917 2.28 10.4271 2.9139 11.1562 3.8817C11.8854 4.8495 12.25 5.9556 12.25 7.2V13.5H13.125C13.3729 13.5 13.5809 13.5864 13.7489 13.7592C13.9169 13.932 14.0006 14.1456 14 14.4C13.9994 14.6544 13.9154 14.8683 13.748 15.0417C13.5806 15.2151 13.3729 15.3012 13.125 15.3H0.875003ZM7 18C6.51875 18 6.10692 17.8239 5.7645 17.4717C5.42208 17.1195 5.25058 16.6956 5.25 16.2H8.75C8.75 16.695 8.57879 17.1189 8.23637 17.4717C7.89396 17.8245 7.48183 18.0006 7 18Z" fill="black"/>
</svg>
