<svg width="21" height="21" viewBox="0 0 21 21" fill="none" xmlns="http://www.w3.org/2000/svg">
<path d="M6.79219 8.95781C7.82031 9.98594 9.05625 10.5 10.5 10.5C11.9437 10.5 13.1797 9.98594 14.2078 8.95781C15.2359 7.92969 15.75 6.69375 15.75 5.25C15.75 3.80625 15.2359 2.57031 14.2078 1.54219C13.1797 0.514063 11.9437 0 10.5 0C9.05625 0 7.82031 0.514063 6.79219 1.54219C5.76406 2.57031 5.25 3.80625 5.25 5.25C5.25 6.69375 5.76406 7.92969 6.79219 8.95781Z" fill="black"/>
<path d="M0 17.325V18.375C0.000875 19.0977 0.258125 19.7159 0.77175 20.2296C1.28537 20.7432 1.90312 21 2.625 21H18.375C19.0977 21.0009 19.7159 20.7441 20.2296 20.2296C20.7432 19.7151 21 19.0969 21 18.375V17.325C21.0009 16.5821 20.8097 15.8987 20.4264 15.2749C20.0432 14.651 19.5344 14.175 18.9 13.8469C17.5437 13.1705 16.1656 12.6621 14.7656 12.3217C13.3656 11.9814 11.9437 11.8116 10.5 11.8125C9.05625 11.8134 7.63437 11.9831 6.23437 12.3217C4.83437 12.6604 3.45625 13.1687 2.1 13.8469C1.4665 14.1759 0.958125 14.6519 0.574875 15.2749C0.191625 15.8979 0 16.5813 0 17.325Z" fill="black"/>
</svg>
