<svg width="15" height="18" viewBox="0 0 15 18" fill="none" xmlns="http://www.w3.org/2000/svg">
<path d="M12.8574 1C13.1824 1.00006 13.4347 1.10317 13.668 1.33398C13.9009 1.5645 14.0004 1.80861 14 2.11914V15.876C13.9999 16.293 13.8534 16.5659 13.4932 16.7988C13.1774 17.0029 12.8854 17.0521 12.54 16.9443L12.3887 16.8887L7.89062 14.9814L7.5 14.8154L7.10938 14.9814L2.60742 16.8896C2.19506 17.0618 1.86664 17.03 1.50684 16.7979C1.14737 16.5659 1.00011 16.294 1 15.876V2.12012C1.00003 1.8082 1.10058 1.56455 1.33301 1.33496C1.53752 1.13297 1.75618 1.02812 2.02539 1.00488L2.14453 1H12.8574Z" stroke="black" stroke-width="2"/>
</svg>
