<svg width="20" height="17" viewBox="0 0 20 17" fill="none" xmlns="http://www.w3.org/2000/svg">
<path fill-rule="evenodd" clip-rule="evenodd" d="M15.7143 6.37808C16.2826 6.37808 16.8277 6.15409 17.2295 5.75538C17.6314 5.35667 17.8571 4.81591 17.8571 4.25205C17.8571 3.68819 17.6314 3.14743 17.2295 2.74873C16.8277 2.35002 16.2826 2.12603 15.7143 2.12603C15.146 2.12603 14.6009 2.35002 14.1991 2.74873C13.7972 3.14743 13.5714 3.68819 13.5714 4.25205C13.5714 4.81591 13.7972 5.35667 14.1991 5.75538C14.6009 6.15409 15.146 6.37808 15.7143 6.37808ZM15.7143 8.5041C16.5158 8.50403 17.3013 8.28094 17.9815 7.86017C18.6617 7.4394 19.2093 6.83781 19.5621 6.12374C19.9149 5.40967 20.0588 4.61173 19.9775 3.82058C19.8962 3.02942 19.5928 2.27675 19.102 1.64807C18.6111 1.01938 17.9523 0.539872 17.2005 0.264012C16.4487 -0.0118477 15.6341 -0.0730029 14.849 0.0874927C14.0639 0.247988 13.34 0.623702 12.7593 1.17196C12.1787 1.72021 11.7647 2.41903 11.5643 3.18904H1.07143C0.787268 3.18904 0.514746 3.30103 0.313814 3.50039C0.112883 3.69974 2.47013e-07 3.97012 2.47013e-07 4.25205C2.47013e-07 4.53398 0.112883 4.80436 0.313814 5.00372C0.514746 5.20307 0.787268 5.31506 1.07143 5.31506H11.5643C11.8018 6.22785 12.3384 7.03644 13.0896 7.61371C13.8408 8.19097 14.7641 8.50419 15.7143 8.5041ZM6.42857 12.7562C6.42857 13.32 6.20281 13.8608 5.80094 14.2595C5.39908 14.6582 4.85404 14.8822 4.28571 14.8822C3.71739 14.8822 3.17235 14.6582 2.77049 14.2595C2.36862 13.8608 2.14286 13.32 2.14286 12.7562C2.14286 12.1923 2.36862 11.6515 2.77049 11.2528C3.17235 10.8541 3.71739 10.6301 4.28571 10.6301C4.85404 10.6301 5.39908 10.8541 5.80094 11.2528C6.20281 11.6515 6.42857 12.1923 6.42857 12.7562ZM8.43571 13.8192C8.17299 14.8194 7.55217 15.6904 6.68928 16.2696C5.82638 16.8487 4.78045 17.0963 3.74696 16.9661C2.71347 16.8359 1.76313 16.3367 1.07356 15.5619C0.383986 14.7872 0.0023595 13.7898 2.47013e-07 12.7562C-0.000353812 11.721 0.379924 10.7212 1.06952 9.94439C1.75912 9.16755 2.71067 8.66698 3.74572 8.53655C4.78077 8.40612 5.82824 8.65479 6.69168 9.23592C7.55512 9.81706 8.17523 10.6907 8.43571 11.6931H18.9286C19.2127 11.6931 19.4853 11.8051 19.6862 12.0045C19.8871 12.2038 20 12.4742 20 12.7562C20 13.0381 19.8871 13.3085 19.6862 13.5078C19.4853 13.7072 19.2127 13.8192 18.9286 13.8192H8.43571Z" fill="black"/>
</svg>
