<svg width="15" height="18" viewBox="0 0 15 18" fill="none" xmlns="http://www.w3.org/2000/svg">
<path fill-rule="evenodd" clip-rule="evenodd" d="M9.09088 2.99971C9.09088 1.34371 10.4144 1.09319e-05 12.045 1.09319e-05C12.4322 -0.00105405 12.8157 0.0757039 13.1738 0.225899C13.5319 0.376093 13.8574 0.596781 14.1318 0.875353C14.4063 1.15392 14.6242 1.48492 14.7731 1.84942C14.9221 2.21393 14.9992 2.6048 15 2.99971C15 4.65661 13.6765 6.0003 12.045 6.0003C11.6538 6.0006 11.2664 5.92167 10.9053 5.76811C10.5442 5.61454 10.2166 5.38939 9.94147 5.10571L5.85176 7.9461C5.96545 8.52481 5.9096 9.12485 5.69118 9.6714L10.1753 12.6774C10.7036 12.2383 11.3644 11.9989 12.0459 11.9997C12.433 11.9988 12.8166 12.0756 13.1746 12.2259C13.5326 12.3762 13.8581 12.597 14.1325 12.8757C14.4068 13.1543 14.6246 13.4854 14.7735 13.8499C14.9223 14.2145 14.9993 14.6054 15 15.0003C15 16.6563 13.6765 18 12.045 18C11.6579 18.0009 11.2744 17.9241 10.9165 17.7738C10.5585 17.6236 10.2331 17.4029 9.95873 17.1243C9.68441 16.8458 9.46657 16.5148 9.31766 16.1504C9.16875 15.7859 9.09169 15.3951 9.09088 15.0003C9.0902 14.5797 9.17712 14.1637 9.34588 13.7799L4.89706 10.8C4.35814 11.2775 3.66799 11.54 2.95412 11.5389C2.56696 11.5398 2.18341 11.463 1.82538 11.3127C1.46736 11.1624 1.14188 10.9416 0.86754 10.6629C0.593201 10.3843 0.375381 10.0532 0.226525 9.68865C0.0776686 9.3241 0.00069439 8.93321 0 8.5383C0.000810152 8.14347 0.0778699 7.75267 0.226778 7.38823C0.375686 7.02378 0.593524 6.69282 0.867851 6.41427C1.14218 6.13571 1.46762 5.915 1.82559 5.76475C2.18355 5.6145 2.56703 5.53766 2.95412 5.53861C3.89294 5.53861 4.72765 5.9823 5.26853 6.6735L9.23294 3.92041C9.13838 3.62305 9.09044 3.31232 9.09088 2.99971Z" fill="black"/>
</svg>
