<svg width="49" height="53" viewBox="0 0 49 53" fill="none" xmlns="http://www.w3.org/2000/svg">
<path opacity="0.44" d="M16.832 24.4425C14.8338 24.319 13.1327 23.5211 11.9108 22.1338C10.7639 20.8301 10.1329 19.1006 10.1329 17.2627C10.1329 15.4247 10.7639 13.6953 11.9108 12.3915C13.2162 10.9075 15.0525 10.1029 17.2226 10.0661H17.2727C19.4445 10.1029 21.2808 10.9075 22.5862 12.3915C23.7331 13.6953 24.3641 15.4247 24.3641 17.2627C24.3641 17.8186 24.3056 18.3728 24.1905 18.9087C24.117 19.2475 24.0703 19.5881 24.0419 19.9286C26.2271 18.932 28.656 18.3761 31.2151 18.3761C32.3602 18.3761 33.4804 18.488 34.5638 18.7017C34.6005 18.2426 34.6189 17.7802 34.6189 17.3128C34.6189 7.7491 26.8698 0 17.3094 0C7.7491 0 0 7.7491 0 17.3094C0 25.7229 6.00463 32.7342 13.9607 34.295C14.2529 30.6158 15.6952 27.2621 17.9288 24.5911C17.5698 24.5177 17.2026 24.4676 16.832 24.4442V24.4425Z" fill="#EB6640"/>
<path d="M34.5641 18.705C33.4807 18.493 32.3622 18.3795 31.2154 18.3795C28.6563 18.3795 26.2274 18.9353 24.0422 19.9319C23.8803 21.8901 24.4429 23.8466 25.6548 25.4274C26.8751 27.02 28.6346 28.0783 30.5844 28.4222C30.9066 28.479 31.2338 28.5191 31.5643 28.5357C33.2436 28.6226 34.8279 29.2502 36.0248 30.3036C37.5088 31.609 38.3134 33.447 38.3502 35.6171V35.6638C38.3134 37.8373 37.5088 39.6753 36.0248 40.9807C34.721 42.1275 32.9916 42.7586 31.1536 42.7586C29.3157 42.7586 27.5862 42.1275 26.2825 40.9807C24.7984 39.6753 23.9938 37.8373 23.9571 35.6672V35.6154C23.9671 35.0729 24.0255 34.5437 24.1307 34.0412C24.1925 33.7524 24.2359 33.4603 24.2642 33.1698C24.4596 31.1817 23.9003 29.1818 22.6767 27.5742C21.4981 26.0267 19.8071 24.9784 17.9274 24.5978C15.6938 27.2687 14.2515 30.6241 13.9594 34.3017C13.9227 34.7607 13.9043 35.2231 13.9043 35.6906C13.9043 45.2509 21.6534 53 31.2137 53C40.7741 53 48.5232 45.2509 48.5232 35.6906C48.5232 27.2771 42.5185 20.2658 34.5624 18.705H34.5641Z" fill="#EB6640"/>
</svg>
