<?xml version="1.0" encoding="UTF-8"?>
<svg id="Calque_2" data-name="Calque 2" xmlns="http://www.w3.org/2000/svg" viewBox="0 0 290.68 317.48">
  <defs>
    <style>
      .cls-1 {
        opacity: .44;
      }
    </style>
  </defs>
  <g id="Calque_1-2" data-name="Calque 1">
    <g>
      <path class="cls-1" d="M100.83,146.42c-11.97-.74-22.16-5.52-29.48-13.83-6.87-7.81-10.65-18.17-10.65-29.18,0-11.01,3.78-21.37,10.65-29.18,7.82-8.89,18.82-13.71,31.82-13.93h.3c13.01.22,24.01,5.04,31.83,13.93,6.87,7.81,10.65,18.17,10.65,29.18,0,3.33-.35,6.65-1.04,9.86-.44,2.03-.72,4.07-.89,6.11,13.09-5.97,27.64-9.3,42.97-9.3,6.86,0,13.57.67,20.06,1.95.22-2.75.33-5.52.33-8.32C207.38,46.42,160.96,0,103.69,0S0,46.42,0,103.69c0,50.4,35.97,92.4,83.63,101.75,1.75-22.04,10.39-42.13,23.77-58.13-2.15-.44-4.35-.74-6.57-.88Z"/>
      <path d="M207.05,112.05c-6.49-1.27-13.19-1.95-20.06-1.95-15.33,0-29.88,3.33-42.97,9.3-.97,11.73,2.4,23.45,9.66,32.92,7.31,9.54,17.85,15.88,29.53,17.94,1.93.34,3.89.58,5.87.68,10.06.52,19.55,4.28,26.72,10.59,8.89,7.82,13.71,18.83,13.93,31.83v.28c-.22,13.02-5.04,24.03-13.93,31.85-7.81,6.87-18.17,10.65-29.18,10.65s-21.37-3.78-29.18-10.65c-8.89-7.82-13.71-18.83-13.93-31.83v-.31c.06-3.25.41-6.42,1.04-9.43.37-1.73.63-3.48.8-5.22,1.17-11.91-2.18-23.89-9.51-33.52-7.06-9.27-17.19-15.55-28.45-17.83-13.38,16-22.02,36.1-23.77,58.13-.22,2.75-.33,5.52-.33,8.32,0,57.27,46.42,103.69,103.69,103.69s103.69-46.42,103.69-103.69c0-50.4-35.97-92.4-83.63-101.75Z"/>
    </g>
  </g>
</svg>