<?xml version="1.0" encoding="UTF-8"?>
<svg id="Calque_2" data-name="Calque 2" xmlns="http://www.w3.org/2000/svg" viewBox="0 0 103.96 113.53">
  <defs>
    <style>
      .cls-1 {
        opacity: .44;
      }

      .cls-1, .cls-2 {
        fill: #fff;
      }
    </style>
  </defs>
  <g id="Brand_Manual" data-name="Brand Manual">
    <g>
      <path class="cls-1" d="M36.06,52.37c-4.28-.26-7.93-1.97-10.54-4.95-2.46-2.79-3.81-6.5-3.81-10.44,0-3.94,1.35-7.64,3.81-10.44,2.8-3.18,6.73-4.9,11.38-4.98h.11c4.65.08,8.59,1.8,11.38,4.98,2.46,2.79,3.81,6.5,3.81,10.44,0,1.19-.12,2.38-.37,3.52-.16.73-.26,1.46-.32,2.18,4.68-2.13,9.89-3.33,15.37-3.33,2.45,0,4.85.24,7.17.7.08-.98.12-1.97.12-2.98C74.17,16.6,57.57,0,37.08,0S0,16.6,0,37.08c0,18.03,12.86,33.05,29.91,36.39.63-7.88,3.72-15.07,8.5-20.79-.77-.16-1.55-.27-2.35-.32Z"/>
      <path class="cls-2" d="M51.99,71.05c.42-4.26-.78-8.54-3.4-11.99-2.52-3.31-6.15-5.56-10.18-6.38-4.78,5.72-7.87,12.91-8.5,20.79,2.32.45,4.72.7,7.17.7,5.3,0,10.34-1.11,14.9-3.12Z"/>
      <path class="cls-2" d="M51.51,42.69c-.35,4.19.86,8.39,3.45,11.77,2.61,3.41,6.38,5.68,10.56,6.42,4.8-5.73,7.9-12.93,8.52-20.82-2.32-.45-4.72-.7-7.17-.7-5.48,0-10.68,1.19-15.37,3.33Z"/>
      <path class="cls-2" d="M74.05,40.06c-2.32-.45-4.72-.7-7.17-.7-5.48,0-10.68,1.19-15.37,3.33-.35,4.19.86,8.39,3.45,11.77,2.61,3.41,6.38,5.68,10.56,6.42.69.12,1.39.21,2.1.24,3.6.19,6.99,1.53,9.56,3.79,3.18,2.8,4.9,6.73,4.98,11.38v.1c-.08,4.66-1.8,8.6-4.98,11.39-2.79,2.46-6.5,3.81-10.44,3.81s-7.64-1.35-10.44-3.81c-3.18-2.8-4.9-6.73-4.98-11.38v-.11c.02-1.16.15-2.3.37-3.37.13-.62.23-1.24.29-1.87.42-4.26-.78-8.54-3.4-11.99-2.52-3.31-6.15-5.56-10.17-6.38-4.78,5.72-7.87,12.91-8.5,20.79-.08.98-.12,1.97-.12,2.98,0,20.48,16.6,37.08,37.08,37.08s37.08-16.6,37.08-37.08c0-18.03-12.86-33.05-29.91-36.39Z"/>
    </g>
  </g>
</svg>